<svg width="221" height="221" viewBox="0 0 221 221" fill="none" xmlns="http://www.w3.org/2000/svg">
<path d="M193.375 27.625C195.817 27.625 198.159 28.5952 199.886 30.3221C201.613 32.049 202.583 34.3911 202.583 36.8333V184.167C202.583 186.609 201.613 188.951 199.886 190.678C198.159 192.405 195.817 193.375 193.375 193.375H27.625C25.1828 193.375 22.8406 192.405 21.1137 190.678C19.3868 188.951 18.4166 186.609 18.4166 184.167V36.8333C18.4166 34.3911 19.3868 32.049 21.1137 30.3221C22.8406 28.5952 25.1828 27.625 27.625 27.625H193.375ZM86.5491 73.6667H68.1324L38.6657 147.333H58.5005L62.1838 138.125H92.4793L96.1626 147.333H116.007L86.5491 73.6667ZM174.958 73.6667H156.542V92.0833H147.333C140.142 92.0764 133.232 94.8736 128.071 99.8807C122.91 104.888 119.905 111.71 119.694 118.898C119.483 126.085 122.083 133.072 126.941 138.373C131.8 143.675 138.534 146.872 145.713 147.287L147.333 147.333H174.958V73.6667ZM156.542 110.5V128.917H147.333L146.256 128.852C144.018 128.586 141.955 127.508 140.458 125.823C138.962 124.138 138.135 121.962 138.135 119.708C138.135 117.454 138.962 115.279 140.458 113.594C141.955 111.908 144.018 110.831 146.256 110.564L147.333 110.5H156.542ZM77.3408 100.233L85.1218 119.708H69.5413L77.3408 100.233Z" fill="white"/>
</svg>
