<svg width="150" height="150" viewBox="0 0 150 150" fill="none" xmlns="http://www.w3.org/2000/svg">
<path d="M108.281 75L137.812 45.4687C141.562 41.7187 141.562 36.0938 137.812 32.3438L118.125 12.6563C114.375 8.90625 108.75 8.90625 105 12.6563L75 41.7187L45.4687 12.1875C41.7187 8.4375 36.0938 8.4375 32.3438 12.1875L12.1875 31.875C8.4375 35.625 8.4375 41.25 12.1875 45L41.7187 75L9.375 107.344V140.625H42.6563L75 108.281L104.531 137.812C108.281 141.562 113.906 141.562 117.656 137.812L137.344 118.125C141.094 114.375 141.094 108.75 137.344 105L108.281 75ZM111.562 18.75L131.25 38.4375L101.719 67.9688L82.0312 48.2813L111.562 18.75ZM38.4375 131.25H18.75V111.562L48.2813 82.0312L67.9688 101.719L38.4375 131.25ZM111.562 131.25L18.75 38.4375L38.4375 18.75L54.8437 35.1562L45 45L51.5625 51.5625L61.4063 41.7187L81.0937 61.4063L71.25 71.25L77.8125 77.8125L87.6563 67.9688L107.344 87.6563L98.4375 97.9687L105 104.531L114.844 94.6875L131.25 111.094L111.562 131.25V131.25Z" fill="white"/>
</svg>
