<svg width="152" height="27" viewBox="0 0 152 27" fill="none" xmlns="http://www.w3.org/2000/svg">
<path d="M9.30614 0.499423C4.72146 0.748594 1.1151 4.39033 1 8.81791C1 11.0221 2.06624 13.073 3.5625 14.6639C5.13549 16.2739 5.15573 17.7095 5.27083 18.6679L6.73512 18.1798C6.62002 16.2631 5.88095 14.6255 4.93247 13.3413C3.92529 11.9777 3.18684 10.5429 3.18684 8.89458C3.24438 5.50202 5.94916 2.74196 9.47879 2.55029C13.3153 2.33946 16.4997 5.32951 16.4997 8.97125C16.4997 10.5621 15.9588 12.4957 14.7887 13.6649C13.4464 15.2087 12.4702 17.2036 12.0301 19.0339H14.1594C14.2553 18.0756 14.6773 16.2931 16.2311 14.6639C17.7274 13.1113 18.5714 11.0988 18.5714 8.93291C18.5714 4.12199 14.3512 0.231085 9.30614 0.499423Z" fill="#05FF9A" stroke="#05FF9A" stroke-width="0.732142"/>
<path d="M14.6439 20.4692L4.66016 23.8506L4.90368 20.3007L14.9102 16.8374L14.6439 20.4692Z" fill="#05FF9A"/>
<path d="M13.0269 24.6078L6.37109 26.8434L6.53345 24.4964L13.2044 22.2065L13.0269 24.6078Z" fill="#05FF9A"/>
<path d="M31.5392 20.1971C30.5977 20.1971 29.7491 19.9679 28.9934 19.5095C28.2501 19.0512 27.6616 18.4255 27.228 17.6327C26.7944 16.8398 26.5776 15.954 26.5776 14.9753C26.5776 13.9718 26.7944 13.0798 27.228 12.2994C27.6616 11.5065 28.2501 10.8809 28.9934 10.4225C29.7491 9.9641 30.5977 9.73491 31.5392 9.73491C32.3693 9.73491 33.1064 9.91454 33.7506 10.2738C34.3948 10.6207 34.9028 11.0915 35.2744 11.6861L34.9957 12.1135V5.90681H36.7425V19.9741H35.0514V17.8371L35.2744 18.1344C34.9275 18.791 34.4196 19.2989 33.7506 19.6582C33.094 20.0175 32.3569 20.1971 31.5392 20.1971ZM31.6879 18.5246C32.3197 18.5246 32.8834 18.3698 33.379 18.0601C33.8745 17.7504 34.2647 17.3291 34.5497 16.7964C34.847 16.2513 34.9957 15.6443 34.9957 14.9753C34.9957 14.2939 34.847 13.6869 34.5497 13.1542C34.2647 12.6091 33.8745 12.1817 33.379 11.8719C32.8834 11.5622 32.3197 11.4074 31.6879 11.4074C31.0685 11.4074 30.5048 11.5684 29.9969 11.8905C29.5013 12.2002 29.1111 12.6215 28.8261 13.1542C28.5412 13.6745 28.3987 14.2815 28.3987 14.9753C28.3987 15.6443 28.5412 16.2513 28.8261 16.7964C29.1111 17.3291 29.5013 17.7504 29.9969 18.0601C30.4924 18.3698 31.0561 18.5246 31.6879 18.5246ZM44.026 20.1971C43.0597 20.1971 42.1987 19.9679 41.4429 19.5095C40.6872 19.0512 40.0926 18.4255 39.659 17.6327C39.2254 16.8274 39.0086 15.9292 39.0086 14.9381C39.0086 13.9347 39.2192 13.0427 39.6404 12.2622C40.074 11.4817 40.6563 10.8685 41.3872 10.4225C42.1305 9.9641 42.9606 9.73491 43.8773 9.73491C44.6206 9.73491 45.2772 9.87118 45.8471 10.1437C46.4294 10.4039 46.9187 10.7632 47.3152 11.2215C47.724 11.6675 48.0337 12.1817 48.2443 12.7639C48.4673 13.3338 48.5788 13.9285 48.5788 14.5479C48.5788 14.6842 48.5664 14.839 48.5416 15.0125C48.5292 15.1735 48.5107 15.3284 48.4859 15.477H40.2722V13.9904H47.4824L46.6648 14.6594C46.7763 14.0152 46.7143 13.4391 46.4789 12.9312C46.2435 12.4232 45.8967 12.0206 45.4383 11.7233C44.9799 11.426 44.4596 11.2773 43.8773 11.2773C43.295 11.2773 42.7623 11.426 42.2792 11.7233C41.796 12.0206 41.4182 12.448 41.1456 13.0055C40.8855 13.5506 40.7802 14.201 40.8297 14.9567C40.7802 15.6876 40.8916 16.3319 41.1642 16.8893C41.4491 17.4344 41.8456 17.8619 42.3535 18.1716C42.8738 18.4689 43.4375 18.6176 44.0446 18.6176C44.7135 18.6176 45.2772 18.4627 45.7356 18.153C46.194 17.8433 46.5656 17.4468 46.8506 16.9637L48.3001 17.707C48.1018 18.1654 47.7921 18.5866 47.3709 18.9706C46.9621 19.3423 46.4727 19.6396 45.9029 19.8626C45.3454 20.0856 44.7197 20.1971 44.026 20.1971ZM55.4407 20.1971C54.4744 20.1971 53.6134 19.9679 52.8577 19.5095C52.102 19.0512 51.5073 18.4255 51.0737 17.6327C50.6401 16.8274 50.4233 15.9292 50.4233 14.9381C50.4233 13.9347 50.6339 13.0427 51.0551 12.2622C51.4887 11.4817 52.071 10.8685 52.8019 10.4225C53.5452 9.9641 54.3753 9.73491 55.292 9.73491C56.0354 9.73491 56.692 9.87118 57.2618 10.1437C57.8441 10.4039 58.3335 10.7632 58.7299 11.2215C59.1387 11.6675 59.4484 12.1817 59.659 12.7639C59.882 13.3338 59.9935 13.9285 59.9935 14.5479C59.9935 14.6842 59.9811 14.839 59.9564 15.0125C59.944 15.1735 59.9254 15.3284 59.9006 15.477H51.687V13.9904H58.8971L58.0795 14.6594C58.191 14.0152 58.129 13.4391 57.8937 12.9312C57.6583 12.4232 57.3114 12.0206 56.853 11.7233C56.3946 11.426 55.8743 11.2773 55.292 11.2773C54.7098 11.2773 54.1771 11.426 53.6939 11.7233C53.2108 12.0206 52.8329 12.448 52.5603 13.0055C52.3002 13.5506 52.1949 14.201 52.2444 14.9567C52.1949 15.6876 52.3064 16.3319 52.5789 16.8893C52.8639 17.4344 53.2603 17.8619 53.7682 18.1716C54.2886 18.4689 54.8522 18.6176 55.4593 18.6176C56.1283 18.6176 56.692 18.4627 57.1503 18.153C57.6087 17.8433 57.9804 17.4468 58.2653 16.9637L59.7148 17.707C59.5166 18.1654 59.2069 18.5866 58.7856 18.9706C58.3768 19.3423 57.8875 19.6396 57.3176 19.8626C56.7601 20.0856 56.1345 20.1971 55.4407 20.1971ZM62.2469 23.6907V9.9579H63.9379V12.1135L63.7149 11.6861C64.0866 11.0915 64.5945 10.6207 65.2387 10.2738C65.8829 9.91454 66.6201 9.73491 67.4501 9.73491C68.3916 9.73491 69.2341 9.9641 69.9774 10.4225C70.7331 10.8809 71.3277 11.5065 71.7613 12.2994C72.1949 13.0798 72.4118 13.9718 72.4118 14.9753C72.4118 15.954 72.1949 16.8398 71.7613 17.6327C71.3277 18.4255 70.7331 19.0512 69.9774 19.5095C69.2341 19.9679 68.3854 20.1971 67.4315 20.1971C66.6263 20.1971 65.8891 20.0175 65.2201 19.6582C64.5635 19.2989 64.0556 18.791 63.6963 18.1344L63.9751 17.8371V23.6907H62.2469ZM67.3014 18.5246C67.9333 18.5246 68.4969 18.3698 68.9925 18.0601C69.488 17.7504 69.8721 17.3291 70.1446 16.7964C70.4296 16.2513 70.572 15.6443 70.572 14.9753C70.572 14.2815 70.4296 13.6745 70.1446 13.1542C69.8721 12.6215 69.488 12.2002 68.9925 11.8905C68.4969 11.5684 67.9333 11.4074 67.3014 11.4074C66.6696 11.4074 66.0997 11.5622 65.5918 11.8719C65.0963 12.1817 64.6998 12.6091 64.4025 13.1542C64.1176 13.6869 63.9751 14.2939 63.9751 14.9753C63.9751 15.6443 64.1176 16.2513 64.4025 16.7964C64.6998 17.3291 65.0963 17.7504 65.5918 18.0601C66.0997 18.3698 66.6696 18.5246 67.3014 18.5246ZM78.5661 20.0856C77.5873 20.0856 76.8316 19.8069 76.2989 19.2494C75.7786 18.6919 75.5184 17.9052 75.5184 16.8893V11.6118H73.6973V9.9579H74.069C74.515 9.9579 74.868 9.82163 75.1282 9.54908C75.3884 9.27653 75.5184 8.91726 75.5184 8.47126V7.65361H77.2467V9.9579H79.4952V11.6118H77.2467V16.8336C77.2467 17.1681 77.2962 17.4592 77.3953 17.707C77.5068 17.9548 77.6865 18.153 77.9342 18.3017C78.182 18.4379 78.5103 18.5061 78.9191 18.5061C79.0058 18.5061 79.1112 18.4999 79.235 18.4875C79.3713 18.4751 79.4952 18.4627 79.6067 18.4503V19.9741C79.4456 20.0113 79.266 20.0361 79.0678 20.0485C78.8696 20.0732 78.7023 20.0856 78.5661 20.0856ZM86.2006 20.1971C85.2343 20.1971 84.3733 19.9679 83.6176 19.5095C82.8619 19.0512 82.2672 18.4255 81.8336 17.6327C81.4 16.8274 81.1832 15.9292 81.1832 14.9381C81.1832 13.9347 81.3938 13.0427 81.815 12.2622C82.2486 11.4817 82.8309 10.8685 83.5618 10.4225C84.3051 9.9641 85.1352 9.73491 86.0519 9.73491C86.7953 9.73491 87.4519 9.87118 88.0217 10.1437C88.604 10.4039 89.0934 10.7632 89.4898 11.2215C89.8986 11.6675 90.2083 12.1817 90.4189 12.7639C90.6419 13.3338 90.7534 13.9285 90.7534 14.5479C90.7534 14.6842 90.741 14.839 90.7163 15.0125C90.7039 15.1735 90.6853 15.3284 90.6605 15.477H82.4468V13.9904H89.657L88.8394 14.6594C88.9509 14.0152 88.8889 13.4391 88.6536 12.9312C88.4182 12.4232 88.0713 12.0206 87.6129 11.7233C87.1545 11.426 86.6342 11.2773 86.0519 11.2773C85.4697 11.2773 84.937 11.426 84.4538 11.7233C83.9706 12.0206 83.5928 12.448 83.3202 13.0055C83.0601 13.5506 82.9548 14.201 83.0043 14.9567C82.9548 15.6876 83.0663 16.3319 83.3388 16.8893C83.6238 17.4344 84.0202 17.8619 84.5281 18.1716C85.0485 18.4689 85.6121 18.6176 86.2192 18.6176C86.8882 18.6176 87.4519 18.4627 87.9102 18.153C88.3686 17.8433 88.7403 17.4468 89.0252 16.9637L90.4747 17.707C90.2765 18.1654 89.9667 18.5866 89.5455 18.9706C89.1367 19.3423 88.6474 19.6396 88.0775 19.8626C87.52 20.0856 86.8944 20.1971 86.2006 20.1971ZM97.6525 20.1971C96.6738 20.1971 95.8004 19.9679 95.0323 19.5095C94.2766 19.0512 93.6819 18.4255 93.2483 17.6327C92.8147 16.8398 92.5979 15.9478 92.5979 14.9567C92.5979 13.9532 92.8147 13.0613 93.2483 12.2808C93.6819 11.5003 94.2766 10.8809 95.0323 10.4225C95.8004 9.9641 96.6738 9.73491 97.6525 9.73491C98.3091 9.73491 98.9223 9.8526 99.4922 10.088C100.062 10.3234 100.564 10.6393 100.997 11.0357C101.431 11.4321 101.747 11.8967 101.945 12.4294L100.403 13.1728C100.167 12.6524 99.8081 12.2312 99.325 11.9091C98.8418 11.5746 98.2843 11.4074 97.6525 11.4074C97.0455 11.4074 96.4942 11.5622 95.9986 11.8719C95.5155 12.1817 95.1314 12.6029 94.8465 13.1356C94.5615 13.6683 94.4191 14.2815 94.4191 14.9753C94.4191 15.6443 94.5615 16.2513 94.8465 16.7964C95.1314 17.3291 95.5155 17.7504 95.9986 18.0601C96.4942 18.3698 97.0455 18.5246 97.6525 18.5246C98.2843 18.5246 98.8418 18.3636 99.325 18.0415C99.8081 17.707 100.167 17.2672 100.403 16.7221L101.945 17.5026C101.747 18.0229 101.431 18.4875 100.997 18.8963C100.564 19.2927 100.062 19.6087 99.4922 19.844C98.9223 20.0794 98.3091 20.1971 97.6525 20.1971ZM104.204 19.9741V5.90681H105.932V11.9091L105.616 11.7419C105.864 11.11 106.26 10.6207 106.805 10.2738C107.363 9.91454 108.013 9.73491 108.757 9.73491C109.475 9.73491 110.113 9.89596 110.671 10.2181C111.24 10.5402 111.686 10.9862 112.009 11.556C112.343 12.1259 112.51 12.7701 112.51 13.4887V19.9741H110.764V14.0462C110.764 13.4887 110.658 13.0179 110.448 12.6338C110.249 12.2498 109.971 11.9525 109.611 11.7419C109.252 11.5189 108.837 11.4074 108.366 11.4074C107.908 11.4074 107.493 11.5189 107.121 11.7419C106.75 11.9525 106.458 12.256 106.248 12.6524C106.037 13.0365 105.932 13.5011 105.932 14.0462V19.9741H104.204ZM114.983 19.9741V5.90681H116.712V19.9741H114.983ZM122.329 20.1971C121.673 20.1971 121.09 20.0794 120.582 19.844C120.087 19.5963 119.697 19.2618 119.412 18.8406C119.127 18.407 118.984 17.9114 118.984 17.3539C118.984 16.8212 119.096 16.3442 119.319 15.923C119.554 15.4894 119.913 15.124 120.397 14.8266C120.892 14.5293 121.512 14.3187 122.255 14.1948L125.971 13.5816V15.0311L122.645 15.5885C122.001 15.7 121.53 15.9045 121.233 16.2018C120.948 16.4991 120.805 16.8646 120.805 17.2982C120.805 17.707 120.966 18.0477 121.289 18.3202C121.623 18.5928 122.038 18.7291 122.534 18.7291C123.165 18.7291 123.711 18.599 124.169 18.3388C124.64 18.0663 125.005 17.7008 125.265 17.2424C125.538 16.784 125.674 16.2761 125.674 15.7186V13.1728C125.674 12.6277 125.47 12.1879 125.061 11.8534C124.664 11.5065 124.138 11.333 123.481 11.333C122.911 11.333 122.404 11.4817 121.958 11.779C121.524 12.064 121.202 12.448 120.991 12.9312L119.486 12.1507C119.672 11.6923 119.969 11.2835 120.378 10.9242C120.787 10.5526 121.264 10.2614 121.809 10.0508C122.354 9.84021 122.924 9.73491 123.519 9.73491C124.287 9.73491 124.962 9.88357 125.544 10.1809C126.126 10.4658 126.579 10.8685 126.901 11.3888C127.235 11.8967 127.402 12.4914 127.402 13.1728V19.9741H125.711V18.0787L126.027 18.1902C125.817 18.5866 125.532 18.9335 125.172 19.2308C124.813 19.5281 124.392 19.7635 123.909 19.937C123.426 20.1104 122.899 20.1971 122.329 20.1971ZM135.267 20.1971C134.461 20.1971 133.724 20.0175 133.055 19.6582C132.399 19.2989 131.891 18.791 131.531 18.1344L131.773 17.8371V19.9741H130.082V5.90681H131.81V12.1135L131.55 11.6861C131.922 11.0915 132.43 10.6207 133.074 10.2738C133.718 9.91454 134.455 9.73491 135.285 9.73491C136.227 9.73491 137.069 9.9641 137.812 10.4225C138.568 10.8809 139.163 11.5065 139.596 12.2994C140.03 13.0798 140.247 13.9718 140.247 14.9753C140.247 15.954 140.03 16.8398 139.596 17.6327C139.163 18.4255 138.568 19.0512 137.812 19.5095C137.069 19.9679 136.221 20.1971 135.267 20.1971ZM135.137 18.5246C135.768 18.5246 136.332 18.3698 136.828 18.0601C137.323 17.7504 137.707 17.3291 137.98 16.7964C138.265 16.2513 138.407 15.6443 138.407 14.9753C138.407 14.2815 138.265 13.6745 137.98 13.1542C137.707 12.6215 137.323 12.2002 136.828 11.8905C136.332 11.5684 135.768 11.4074 135.137 11.4074C134.505 11.4074 133.935 11.5622 133.427 11.8719C132.931 12.1817 132.535 12.6091 132.238 13.1542C131.953 13.6869 131.81 14.2939 131.81 14.9753C131.81 15.6443 131.953 16.2513 132.238 16.7964C132.535 17.3291 132.931 17.7504 133.427 18.0601C133.935 18.3698 134.505 18.5246 135.137 18.5246ZM146.099 20.1971C145.096 20.1971 144.223 19.9493 143.479 19.4538C142.736 18.9583 142.209 18.2893 141.9 17.4468L143.275 16.7779C143.56 17.3725 143.95 17.8433 144.446 18.1902C144.941 18.537 145.492 18.7105 146.099 18.7105C146.645 18.7105 147.097 18.5804 147.456 18.3202C147.815 18.0601 147.995 17.7194 147.995 17.2982C147.995 17.0008 147.908 16.7655 147.735 16.592C147.574 16.4062 147.375 16.2637 147.14 16.1646C146.905 16.0531 146.688 15.9726 146.49 15.923L144.984 15.4956C144.08 15.2355 143.417 14.8638 142.996 14.3806C142.587 13.8975 142.383 13.3338 142.383 12.6896C142.383 12.0949 142.532 11.5808 142.829 11.1472C143.139 10.7012 143.554 10.3543 144.074 10.1066C144.607 9.85879 145.201 9.73491 145.858 9.73491C146.737 9.73491 147.524 9.9579 148.218 10.4039C148.924 10.8499 149.426 11.4755 149.723 12.2808L148.311 12.9312C148.088 12.4109 147.753 12.002 147.307 11.7047C146.861 11.395 146.36 11.2401 145.802 11.2401C145.294 11.2401 144.892 11.3702 144.594 11.6304C144.297 11.8781 144.148 12.1941 144.148 12.5781C144.148 12.863 144.223 13.0984 144.371 13.2843C144.52 13.4577 144.7 13.594 144.91 13.6931C145.121 13.7798 145.325 13.8541 145.523 13.9161L147.159 14.3992C147.976 14.6346 148.608 15.0001 149.054 15.4956C149.513 15.9912 149.742 16.5858 149.742 17.2796C149.742 17.8371 149.587 18.3388 149.277 18.7848C148.967 19.2308 148.54 19.5777 147.995 19.8255C147.45 20.0732 146.818 20.1971 146.099 20.1971Z" fill="white"/>
</svg>
