<svg width="221" height="221" viewBox="0 0 221 221" fill="none" xmlns="http://www.w3.org/2000/svg">
<path d="M96.6875 27.625H41.4375C37.7742 27.625 34.2609 29.0802 31.6706 31.6706C29.0802 34.2609 27.625 37.7742 27.625 41.4375V142.729C27.625 146.392 29.0802 149.906 31.6706 152.496C34.2609 155.086 37.7742 156.542 41.4375 156.542H179.562C183.226 156.542 186.739 155.086 189.329 152.496C191.92 149.906 193.375 146.392 193.375 142.729V96.6875M110.5 156.542V193.375" stroke="white" stroke-width="18.4167" stroke-linecap="round" stroke-linejoin="round"/>
<path d="M147.333 27.625L128.917 46.0417L147.333 64.4583M174.958 27.625L193.375 46.0417L174.958 64.4583M64.4583 193.375H156.542" stroke="white" stroke-width="18.4167" stroke-linecap="round" stroke-linejoin="round"/>
</svg>
