<svg width="221" height="221" viewBox="0 0 221 221" fill="none" xmlns="http://www.w3.org/2000/svg">
<path d="M110.5 202.583C98.4074 202.583 86.4333 200.202 75.2612 195.574C64.0891 190.946 53.9379 184.164 45.3872 175.613C28.1182 158.344 18.4166 134.922 18.4166 110.5C18.4166 86.0781 28.1182 62.6563 45.3872 45.3873C62.6562 28.1184 86.0779 18.4167 110.5 18.4167C161.146 18.4167 202.583 55.2501 202.583 101.292C202.583 115.945 196.762 129.998 186.401 140.359C176.04 150.721 161.986 156.542 147.333 156.542H130.758C127.996 156.542 126.154 158.383 126.154 161.146C126.154 162.067 127.075 162.988 127.075 163.908C130.758 168.513 132.6 174.038 132.6 179.563C133.521 192.454 123.392 202.583 110.5 202.583M110.5 36.8334C90.9623 36.8334 72.2249 44.5947 58.4098 58.4099C44.5946 72.2251 36.8333 90.9625 36.8333 110.5C36.8333 130.038 44.5946 148.775 58.4098 162.59C72.2249 176.405 90.9623 184.167 110.5 184.167C113.262 184.167 115.104 182.325 115.104 179.563C115.104 177.721 114.183 176.8 114.183 175.879C110.5 171.275 108.658 166.671 108.658 161.146C108.658 148.254 118.787 138.125 131.679 138.125H147.333C157.102 138.125 166.471 134.244 173.378 127.337C180.286 120.429 184.167 111.061 184.167 101.292C184.167 65.3792 151.017 36.8334 110.5 36.8334M59.8541 92.0834C67.2208 92.0834 73.6666 98.5292 73.6666 105.896C73.6666 113.263 67.2208 119.708 59.8541 119.708C52.4875 119.708 46.0416 113.263 46.0416 105.896C46.0416 98.5292 52.4875 92.0834 59.8541 92.0834ZM87.4791 55.2501C94.8458 55.2501 101.292 61.6959 101.292 69.0626C101.292 76.4292 94.8458 82.8751 87.4791 82.8751C80.1125 82.8751 73.6666 76.4292 73.6666 69.0626C73.6666 61.6959 80.1125 55.2501 87.4791 55.2501ZM133.521 55.2501C140.887 55.2501 147.333 61.6959 147.333 69.0626C147.333 76.4292 140.887 82.8751 133.521 82.8751C126.154 82.8751 119.708 76.4292 119.708 69.0626C119.708 61.6959 126.154 55.2501 133.521 55.2501ZM161.146 92.0834C168.512 92.0834 174.958 98.5292 174.958 105.896C174.958 113.263 168.512 119.708 161.146 119.708C153.779 119.708 147.333 113.263 147.333 105.896C147.333 98.5292 153.779 92.0834 161.146 92.0834Z" fill="white"/>
</svg>
