<svg width="221" height="221" viewBox="0 0 221 221" fill="none" xmlns="http://www.w3.org/2000/svg">
<path fill-rule="evenodd" clip-rule="evenodd" d="M120.859 10.3594C120.859 7.6119 119.768 4.97695 117.825 3.03419C115.882 1.09143 113.247 0 110.5 0C107.753 0 105.118 1.09143 103.175 3.03419C101.232 4.97695 100.141 7.6119 100.141 10.3594V27.625H86.5491C82.3363 27.625 78.2064 28.73 74.5461 30.8019L56.7556 40.9817C56.23 41.2824 55.6345 41.4396 55.029 41.4375H24.1719C21.4244 41.4375 18.7894 42.5289 16.8467 44.4717C14.9039 46.4144 13.8125 49.0494 13.8125 51.7969C13.8125 54.5444 14.9039 57.1793 16.8467 59.1221C18.7894 61.0648 21.4244 62.1562 24.1719 62.1562H30.0836L0.911617 126.965C0.0499659 128.882 -0.208025 131.016 0.171906 133.083C0.551838 135.151 1.55171 137.054 3.03874 138.539L10.3594 131.219L3.03874 138.539V138.553L3.06637 138.581L3.09399 138.608L3.17687 138.691L3.39787 138.898L4.01943 139.451C6.92436 141.886 10.1045 143.972 13.4948 145.667C22.1926 149.907 31.7617 152.055 41.4375 151.938C53.5925 151.938 62.9297 148.899 69.3802 145.667C72.7704 143.972 75.9505 141.886 78.8556 139.451L79.4771 138.898L79.6981 138.691L79.781 138.608L79.8086 138.581L79.8224 138.553L72.5156 131.219L79.8362 138.539C81.3233 137.054 82.3231 135.151 82.7031 133.083C83.083 131.016 82.825 128.882 81.9634 126.965L52.7914 62.1562H55.029C59.2418 62.1562 63.3717 61.0512 67.0321 58.9794L84.8364 48.7996C85.3579 48.5012 85.9483 48.3441 86.5491 48.3438H100.141V179.562H65.6094C62.8619 179.562 60.2269 180.654 58.2842 182.597C56.3414 184.539 55.25 187.174 55.25 189.922C55.25 192.669 56.3414 195.304 58.2842 197.247C60.2269 199.19 62.8619 200.281 65.6094 200.281H155.391C158.138 200.281 160.773 199.19 162.716 197.247C164.659 195.304 165.75 192.669 165.75 189.922C165.75 187.174 164.659 184.539 162.716 182.597C160.773 180.654 158.138 179.562 155.391 179.562H120.859V48.3438H134.451C135.052 48.3441 135.642 48.5012 136.164 48.7996L153.982 58.9656C157.628 61.0651 161.758 62.1562 165.971 62.1562H168.209L139.037 126.965C138.175 128.882 137.917 131.016 138.297 133.083C138.677 135.151 139.677 137.054 141.164 138.539L148.484 131.219L141.164 138.539V138.553L141.191 138.581L141.219 138.608L141.302 138.691L141.523 138.898L142.144 139.451C145.05 141.885 148.23 143.971 151.62 145.667C160.318 149.907 169.887 152.055 179.562 151.938C191.717 151.938 201.055 148.899 207.505 145.667C210.896 143.972 214.076 141.886 216.981 139.451L217.602 138.898L217.74 138.76L217.823 138.691L217.906 138.608L217.934 138.581L217.947 138.553L210.641 131.219L217.961 138.539C219.448 137.054 220.448 135.151 220.828 133.083C221.208 131.016 220.95 128.882 220.088 126.965L190.93 62.1562H196.828C199.576 62.1562 202.211 61.0648 204.153 59.1221C206.096 57.1793 207.187 54.5444 207.187 51.7969C207.187 49.0494 206.096 46.4144 204.153 44.4717C202.211 42.5289 199.576 41.4375 196.828 41.4375H165.971C165.37 41.4372 164.78 41.28 164.258 40.9817L146.44 30.8157C142.793 28.7295 138.666 27.6298 134.465 27.625H120.859V10.3594ZM23.4122 127.448C27.3487 129.313 33.3296 131.219 41.4375 131.219C49.5454 131.219 55.5262 129.313 59.4628 127.448L41.4375 87.3917L23.4122 127.448ZM161.537 127.448C165.474 129.313 171.455 131.219 179.562 131.219C187.67 131.219 193.651 129.313 197.588 127.448L179.562 87.3917L161.537 127.448Z" fill="white"/>
</svg>
