<svg width="150" height="150" viewBox="0 0 150 150" fill="none" xmlns="http://www.w3.org/2000/svg">
<path d="M21.4191 21.4854C21.4191 15.8048 23.6757 10.3567 27.6926 6.33986C31.7095 2.32301 37.1575 0.066357 42.8382 0.066357C48.5189 0.066357 53.9669 2.32301 57.9838 6.33986C62.0006 10.3567 64.2573 15.8048 64.2573 21.4854C64.2573 27.1661 62.0006 32.6142 57.9838 36.631C53.9669 40.6479 48.5189 42.9045 42.8382 42.9045C37.1575 42.9045 31.7095 40.6479 27.6926 36.631C23.6757 32.6142 21.4191 27.1661 21.4191 21.4854V21.4854ZM42.8382 10.7759C39.9978 10.7759 37.2738 11.9042 35.2654 13.9127C33.257 15.9211 32.1286 18.6451 32.1286 21.4854C32.1286 24.3258 33.257 27.0498 35.2654 29.0582C37.2738 31.0667 39.9978 32.195 42.8382 32.195C45.6785 32.195 48.4025 31.0667 50.411 29.0582C52.4194 27.0498 53.5477 24.3258 53.5477 21.4854C53.5477 18.6451 52.4194 15.9211 50.411 13.9127C48.4025 11.9042 45.6785 10.7759 42.8382 10.7759V10.7759ZM94.0191 38.4494C91.7754 36.7379 89.892 34.6 88.4771 32.1584C87.0622 29.7167 86.1437 27.0196 85.7745 24.2219C85.4052 21.4243 85.5924 18.5812 86.3253 15.8561C87.0582 13.131 88.3224 10.5776 90.0452 8.34257C91.7681 6.10756 93.9155 4.23502 96.3643 2.83255C98.813 1.43007 101.515 0.5253 104.314 0.17023C107.114 -0.18484 109.956 0.0167855 112.677 0.763524C115.399 1.51026 117.946 2.78739 120.172 4.52153C124.555 8.02788 127.387 13.1148 128.058 18.6878C128.729 24.2608 127.185 29.8744 123.759 34.3208C120.333 38.7672 115.298 41.691 109.738 42.4631C104.179 43.2352 98.5378 41.7939 94.0298 38.4494H94.0191ZM107.095 10.7759C104.255 10.7759 101.531 11.9042 99.5227 13.9127C97.5142 15.9211 96.3859 18.6451 96.3859 21.4854C96.3859 24.3258 97.5142 27.0498 99.5227 29.0582C101.531 31.0667 104.255 32.195 107.095 32.195C109.936 32.195 112.66 31.0667 114.668 29.0582C116.677 27.0498 117.805 24.3258 117.805 21.4854C117.805 18.6451 116.677 15.9211 114.668 13.9127C112.66 11.9042 109.936 10.7759 107.095 10.7759V10.7759ZM16.0643 53.6141H44.6588C43.4808 56.9662 42.8382 60.5753 42.8382 64.3236H16.0643C14.6441 64.3236 13.2821 64.8878 12.2779 65.892C11.2737 66.8962 10.7095 68.2582 10.7095 69.6784C10.7095 78.4281 14.1901 84.9181 19.6841 89.3304C22.2116 91.3652 25.2424 93.0038 28.6695 94.2033C26.1528 96.8783 24.2134 100.043 22.972 103.499C19.3771 102.055 16.0113 100.096 12.98 97.6839C4.92639 91.2046 0 81.6303 0 69.6784C0 65.4179 1.69249 61.3319 4.70513 58.3192C7.71777 55.3066 11.8038 53.6141 16.0643 53.6141V53.6141ZM56.4179 53.6141C53.5775 58.5364 52.8089 64.3855 54.2811 69.8745C55.7533 75.3635 59.3457 80.0429 64.268 82.8833C69.1903 85.7236 75.0393 86.4923 80.5284 85.0201C86.0174 83.5479 90.6968 79.9555 93.5372 75.0332C96.3775 70.1109 97.1462 64.2618 95.674 58.7728C94.2018 53.2837 90.6094 48.6043 85.6871 45.764C80.7648 42.9236 74.9157 42.155 69.4267 43.6272C63.9376 45.0994 59.2582 48.6918 56.4179 53.6141V53.6141ZM72.5679 53.8818C74.137 53.5274 75.7657 53.5299 77.3338 53.8891C78.9018 54.2484 80.3692 54.9553 81.6274 55.9576C82.8857 56.9599 83.9028 58.232 84.6036 59.68C85.3044 61.128 85.671 62.715 85.6764 64.3236C85.6755 66.3387 85.1062 68.3126 84.0339 70.0186C82.9615 71.7246 81.4296 73.0934 79.6142 73.9679C77.7988 74.8423 75.7735 75.1868 73.7711 74.9618C71.7686 74.7368 69.8703 73.9515 68.2942 72.696C66.7181 71.4405 65.5281 69.7658 64.8611 67.8644C64.194 65.963 64.077 63.9119 64.5233 61.9469C64.9697 59.982 65.9613 58.1828 67.3844 56.7561C68.8074 55.3294 70.6041 54.3332 72.5679 53.8818ZM130.249 89.3304C127.722 91.3652 124.691 93.0038 121.264 94.2033C123.777 96.8793 125.713 100.043 126.951 103.499C130.592 102.011 133.966 100.072 136.954 97.6839C145.007 91.2046 149.934 81.6303 149.934 69.6784C149.934 65.4179 148.241 61.3319 145.229 58.3192C142.216 55.3066 138.13 53.6141 133.869 53.6141H105.275C106.453 56.9662 107.095 60.5753 107.095 64.3236H133.869C135.29 64.3236 136.652 64.8878 137.656 65.892C138.66 66.8962 139.224 68.2582 139.224 69.6784C139.224 78.4281 135.743 84.9181 130.249 89.3304V89.3304ZM101.741 96.4523C106.001 96.4523 110.087 98.1448 113.1 101.157C116.113 104.17 117.805 108.256 117.805 112.517C117.805 124.468 112.889 134.043 104.825 140.522C96.8893 146.894 86.244 150 74.9668 150C63.6897 150 53.0444 146.894 45.1086 140.522C37.055 134.043 32.1286 124.468 32.1286 112.517C32.123 110.405 32.5346 108.314 33.3399 106.362C34.1453 104.411 35.3283 102.638 36.8212 101.145C38.314 99.652 40.0872 98.4689 42.0387 97.6636C43.9903 96.8583 46.0818 96.4466 48.193 96.4523H101.741ZM101.741 107.162H48.193C46.7728 107.162 45.4108 107.726 44.4066 108.73C43.4023 109.734 42.8382 111.096 42.8382 112.517C42.8382 121.266 46.3188 127.756 51.8128 132.169C57.446 136.688 65.5424 139.29 74.9668 139.29C84.3912 139.29 92.4876 136.688 98.1209 132.169C103.615 127.756 107.095 121.266 107.095 112.517C107.095 111.096 106.531 109.734 105.527 108.73C104.523 107.726 103.161 107.162 101.741 107.162V107.162Z" fill="white"/>
</svg>
