<svg width="24" height="34" viewBox="0 0 24 34" fill="none" xmlns="http://www.w3.org/2000/svg">
<path d="M11.3996 1.0164C5.65939 1.32837 1.1441 5.88794 1 11.4314C1 14.1912 2.33497 16.7589 4.20833 18.7507C6.17777 20.7665 6.20312 22.564 6.34722 23.7639L8.18056 23.1528C8.03645 20.753 7.11111 18.7027 5.92358 17.0949C4.66255 15.3875 3.73799 13.5912 3.73799 11.5274C3.81004 7.27981 7.19651 3.82413 11.6157 3.58415C16.4192 3.32018 20.4061 7.06383 20.4061 11.6234C20.4061 13.6152 19.729 16.0361 18.2639 17.5C16.5833 19.4329 15.3611 21.9306 14.81 24.2222H17.476C17.5961 23.0223 18.1245 20.7905 20.0699 18.7507C21.9432 16.8069 23 14.2872 23 11.5754C23 5.55197 17.7162 0.680427 11.3996 1.0164Z" fill="#05FF9A" stroke="#05FF9A" stroke-width="0.916667"/>
<path d="M18.082 26.0193L5.58203 30.2529L5.88694 25.8083L18.4154 21.4722L18.082 26.0193Z" fill="#05FF9A"/>
<path d="M16.056 31.2008L7.72266 33.9999L7.92593 31.0613L16.2782 28.1943L16.056 31.2008Z" fill="#05FF9A"/>
</svg>
